<?xml version="1.0" encoding="utf-8"?>
<!-- Generator: Adobe Illustrator 18.1.0, SVG Export Plug-In . SVG Version: 6.00 Build 0)  -->
<svg version="1.1" id="Layer_1" xmlns="http://www.w3.org/2000/svg" xmlns:xlink="http://www.w3.org/1999/xlink" x="0px" y="0px"
	 viewBox="0 0 276.6 116.4" enable-background="new 0 0 276.6 116.4" xml:space="preserve">
<g>
	<path fill="#FFFFFF" d="M6.2,11.4h10.2v57.3H6.2V11.4z"/>
	<path fill="#FFFFFF" d="M79.8,64.5c-7,3.7-14.9,5.7-23.7,5.7c-17.6,0-30.3-12-30.3-29.9C25.8,21.9,38.4,10,56.1,10
		c8.7,0,16.6,1.9,22.6,7.2l-7.5,7.6c-3.6-3.6-9.2-5.6-15-5.6c-11.8,0-19.7,9.1-19.7,20.5c0,12.2,7.9,21.3,19.7,21.3
		c5.2,0,9.9-1,13.4-3V44.4H57.9v-9.2h21.9V64.5z"/>
	<path fill="#FFFFFF" d="M163.5,11.4h10.2v57.3h-10.2V11.4z"/>
	<path fill="#FFFFFF" d="M198,20.7h-17.6v-9.2h45.3v9.2h-17.6v48.1H198V20.7z"/>
	<path fill="#FFFFFF" d="M232.7,11.4h38v9.2h-27.8v14.1h26.3V44h-26.3v15.5h29.2v9.2h-39.4V11.4z"/>
</g>
<circle fill="none" stroke="#C13C2C" stroke-width="3" stroke-miterlimit="10" cx="99.8" cy="15.3" r="12.3"/>
<circle fill="none" stroke="#C13C2C" stroke-width="3" stroke-miterlimit="10" cx="140.7" cy="64.5" r="12.3"/>
<circle fill="none" stroke="#C13C2C" stroke-width="3" stroke-miterlimit="10" cx="142.2" cy="15.3" r="12.3"/>
<circle fill="none" stroke="#C13C2C" stroke-width="3" stroke-miterlimit="10" cx="98.4" cy="64.5" r="12.3"/>
<polyline fill="none" stroke="#FFFFFF" stroke-width="7" stroke-linecap="square" stroke-linejoin="round" stroke-miterlimit="10" points="
	98.4,64.5 98.4,15.3 140.7,64.5 140.7,15.4 "/>
<g>
	<path fill="#FFFFFF" d="M150.9,89.2c-1.2-1.6-3.2-2.4-5.4-2.4c-2.5,0-5,1.1-5,3.9c0,6.1,14.5,2.6,14.5,13.5c0,6.6-5.2,9.8-11.2,9.8
		c-3.8,0-7.5-1.2-10-4.1l4.1-4c1.3,2,3.6,3.2,6,3.2c2.5,0,5.4-1.4,5.4-4.2c0-6.7-14.5-2.8-14.5-13.8c0-6.3,5.6-9.2,11.3-9.2
		c3.2,0,6.4,0.9,8.8,3.2L150.9,89.2z"/>
	<path fill="#FFFFFF" d="M164.4,104.7c0.3,3.1,2.7,4.9,5.6,4.9c2.6,0,4.3-1.2,5.6-2.8l3.7,2.8c-2.4,3-5.5,4.1-8.8,4.1
		c-6.3,0-11.3-4.4-11.3-10.9c0-6.5,5-10.9,11.3-10.9c5.8,0,9.7,4.1,9.7,11.3v1.4H164.4z M175,100.8c0-3-2-4.9-5.3-4.9
		c-3.1,0-5,1.9-5.4,4.9H175z"/>
	<path fill="#FFFFFF" d="M197.9,110.4h-0.1c-1.5,2.3-3.9,3.4-6.6,3.4c-3.8,0-7.6-2.1-7.6-6.2c0-6.7,7.9-7.2,13-7.2h1.3v-0.6
		c0-2.5-2-3.9-4.7-3.9c-2.2,0-4.1,0.9-5.5,2.2l-2.7-2.7c2.3-2.3,5.5-3.3,8.8-3.3c8.8,0,8.8,6.4,8.8,9.3v11.9h-4.7V110.4z M197.6,104
		h-1.1c-2.8,0-7.8,0.2-7.8,3.2c0,1.9,1.9,2.7,3.6,2.7c3.5,0,5.2-1.9,5.2-4.7V104z"/>
	<path fill="#FFFFFF" d="M205.8,96.9v-4.4h4.3v-6h5.2v6h5.7v4.4h-5.7v9.1c0,2.1,0.6,3.4,2.9,3.4c0.9,0,2.2-0.2,2.8-0.6v4.4
		c-1.1,0.5-2.9,0.7-4.1,0.7c-5.5,0-6.8-2.5-6.8-7.3v-9.5H205.8z"/>
	<path fill="#FFFFFF" d="M222.5,96.9v-4.4h4.3v-6h5.2v6h5.7v4.4H232v9.1c0,2.1,0.6,3.4,2.9,3.4c0.9,0,2.2-0.2,2.8-0.6v4.4
		c-1.1,0.5-2.9,0.7-4.1,0.7c-5.5,0-6.8-2.5-6.8-7.3v-9.5H222.5z"/>
	<path fill="#FFFFFF" d="M241.8,80.6h5.2v32.6h-5.2V80.6z"/>
	<path fill="#FFFFFF" d="M257.1,104.7c0.3,3.1,2.7,4.9,5.6,4.9c2.6,0,4.3-1.2,5.6-2.8l3.7,2.8c-2.4,3-5.5,4.1-8.8,4.1
		c-6.3,0-11.3-4.4-11.3-10.9c0-6.5,5-10.9,11.3-10.9c5.8,0,9.7,4.1,9.7,11.3v1.4H257.1z M267.7,100.8c0-3-2-4.9-5.3-4.9
		c-3.1,0-5,1.9-5.4,4.9H267.7z"/>
</g>
</svg>
